<?xml version="1.0" standalone="no"?>
<!DOCTYPE svg PUBLIC "-//W3C//DTD SVG 20010904//EN"
 "http://www.w3.org/TR/2001/REC-SVG-20010904/DTD/svg10.dtd">
<svg version="1.0" xmlns="http://www.w3.org/2000/svg"
 width="512.000000pt" height="512.000000pt" viewBox="0 0 512.000000 512.000000"
 preserveAspectRatio="xMidYMid meet">
<metadata>
Created by potrace 1.14, written by Peter Selinger 2001-2017
</metadata>
<g transform="translate(0.000000,512.000000) scale(0.100000,-0.100000)"
fill="#000000" stroke="none">
<path d="M0 2560 l0 -2560 2560 0 2560 0 0 2560 0 2560 -2560 0 -2560 0 0
-2560z m4965 2394 c4 -30 15 -54 31 -69 l24 -22 8 -334 c4 -184 5 -1218 2
-2299 -5 -1895 -6 -1967 -25 -2032 l-19 -67 -60 -6 c-34 -4 -91 -2 -127 4 -39
6 -230 12 -452 12 l-385 1 -7 85 c-4 46 -4 87 -1 90 4 4 26 1 49 -5 132 -39
338 -72 447 -74 147 -1 176 5 196 43 15 29 17 30 68 24 47 -6 56 -4 82 18 l29
25 7 189 c4 103 11 229 17 278 22 189 25 518 6 715 -13 140 -15 223 -10 340
12 261 7 632 -8 647 -20 21 -204 33 -439 30 l-208 -3 0 47 0 47 104 7 c57 4
201 5 321 3 205 -3 217 -2 231 16 11 16 14 84 13 380 -1 199 2 402 6 451 l7
90 -133 24 c-89 15 -160 22 -212 20 l-77 -4 0 75 c0 74 1 76 28 86 33 13 42
45 42 155 0 37 5 91 10 120 6 30 8 66 5 81 -9 41 -78 51 -331 49 -173 -1 -213
1 -217 13 -9 22 29 26 332 33 l283 6 -6 -39 c-37 -240 -47 -469 -21 -492 6 -6
23 -4 43 4 l32 14 1 143 c0 78 8 192 17 252 l17 110 70 0 c39 0 82 -4 96 -9
24 -7 27 -5 31 21 2 16 0 44 -4 61 l-9 32 -209 0 c-229 0 -222 -2 -199 57 9
24 30 254 33 363 l1 34 -203 3 c-136 1 -232 7 -293 19 -59 11 -94 13 -100 7
-31 -31 -58 -408 -31 -435 10 -10 70 -14 232 -18 120 -3 221 -8 224 -11 13
-13 -254 -24 -539 -22 l-299 2 -12 60 c-16 75 -35 105 -90 137 -53 31 -127 35
-202 10 -64 -22 -114 -77 -134 -147 l-14 -51 -604 2 c-332 0 -605 2 -607 3 -1
2 3 46 9 99 11 96 11 97 40 103 44 10 105 73 113 117 6 30 2 48 -20 90 -15 29
-38 64 -51 79 -13 14 -24 28 -24 32 0 4 21 7 48 7 26 1 79 5 117 10 39 5 164
12 279 16 l209 7 -22 -30 c-18 -24 -21 -37 -16 -66 9 -49 24 -59 82 -55 l48 3
3 44 c2 23 -1 55 -6 70 l-9 26 291 1 c160 1 418 6 574 13 156 7 286 10 290 7
13 -14 -38 -62 -99 -93 -72 -37 -129 -53 -275 -78 -54 -9 -105 -21 -111 -27
-22 -18 -16 -67 10 -79 32 -14 234 22 323 58 86 34 196 106 265 174 l56 54
139 2 c76 1 202 7 279 13 77 6 201 12 275 15 74 3 164 12 200 19 112 24 117
23 125 -30z m-4514 10 l30 -15 -33 -42 c-25 -31 -34 -37 -36 -24 -3 17 -57 37
-78 30 -14 -5 -34 -48 -34 -73 0 -24 44 -54 66 -46 12 5 15 2 9 -11 -15 -37
-25 -90 -25 -139 0 -58 -5 -67 -31 -54 -27 15 -67 -4 -75 -37 -4 -15 -1 -47 6
-72 7 -25 21 -75 30 -111 l18 -65 -92 -6 c-50 -3 -92 -5 -93 -5 -1 1 -3 144
-4 319 -2 239 0 320 9 329 7 7 47 20 90 30 88 20 197 16 243 -8z m189 -34 c42
-12 287 -36 461 -46 109 -5 130 -9 154 -28 l28 -22 -38 -49 c-68 -89 -73 -139
-21 -191 19 -19 41 -34 48 -34 12 0 16 -23 21 -107 3 -58 4 -111 0 -116 -3 -5
-78 -7 -181 -3 -121 3 -220 0 -316 -10 -77 -8 -145 -13 -152 -10 -6 2 -17 28
-24 58 -7 29 -21 70 -31 90 -26 51 -26 69 1 181 22 88 26 97 47 97 15 0 30
-11 42 -31 16 -25 17 -36 8 -65 -10 -32 -8 -37 19 -63 44 -43 72 -48 84 -16
25 67 10 125 -56 213 -45 60 -61 72 -96 72 -54 0 -88 -27 -121 -98 -28 -60
-32 -76 -31 -152 1 -71 7 -102 37 -187 43 -122 54 -191 37 -224 -12 -21 -16
-10 -50 122 -21 79 -44 162 -52 184 -50 134 -15 285 90 398 50 53 45 51 92 37z
m-296 -46 c3 -8 2 -12 -4 -9 -6 3 -10 10 -10 16 0 14 7 11 14 -7z m1416 -7 c0
-7 -20 -47 -45 -89 -25 -43 -45 -88 -45 -101 0 -41 20 -84 45 -97 23 -12 25
-20 25 -79 0 -66 -24 -443 -36 -557 l-6 -62 -69 -47 c-39 -26 -72 -45 -76 -42
-3 4 -1 52 6 107 12 110 15 229 5 254 -5 13 -23 16 -89 16 -83 0 -95 5 -95 41
0 5 46 9 103 9 115 0 150 12 155 51 5 44 -18 53 -133 50 l-104 -2 -6 33 c-3
18 -5 68 -3 112 3 79 3 79 38 97 47 25 78 62 86 103 5 29 0 43 -27 82 -17 26
-40 55 -50 65 -17 17 -17 19 2 43 20 26 21 26 170 26 114 0 149 -3 149 -13z
m2454 -173 l169 -7 -7 -115 c-3 -63 -9 -119 -12 -124 -4 -7 -39 -8 -93 -4 -47
3 -139 7 -205 8 l-118 2 6 46 c3 25 9 83 12 129 l7 83 36 -6 c20 -3 112 -9
205 -12z m-3820 -276 c19 -59 21 -111 4 -106 -14 5 -34 62 -43 123 -6 38 -5
44 8 40 8 -4 22 -29 31 -57z m2086 -191 l175 -12 0 -50 0 -50 -155 -6 c-181
-7 -278 -21 -413 -56 -53 -14 -100 -24 -102 -21 -3 3 -9 25 -13 49 -7 43 -8
44 -47 44 -39 0 -40 -1 -39 -35 0 -19 2 -48 5 -64 3 -26 -1 -33 -36 -53 -22
-12 -44 -23 -49 -23 -8 0 -3 101 11 228 5 44 9 52 24 47 9 -3 20 -1 24 5 8 14
388 12 615 -3z m528 -3 c28 -3 52 -9 52 -14 0 -8 19 -17 130 -56 51 -18 64
-27 62 -41 -6 -33 -19 -37 -79 -26 -70 13 -82 9 -89 -27 -6 -27 -6 -27 -47
-15 -23 7 -89 20 -147 30 -58 9 -111 21 -119 25 -11 6 -14 24 -12 66 1 32 5
62 7 66 4 7 139 2 242 -8z m-2548 0 c0 -3 -16 -25 -35 -48 -50 -61 -78 -131
-72 -174 13 -76 71 -95 124 -39 16 17 33 40 36 49 3 9 23 26 44 36 53 28 70
50 86 112 l14 54 49 -3 c27 -1 51 -4 53 -7 2 -2 -1 -142 -6 -311 -6 -169 -8
-313 -6 -319 6 -17 69 -24 250 -25 l161 -2 -5 -116 c-3 -64 -11 -127 -18 -141
-7 -14 -29 -54 -49 -90 l-37 -65 8 55 c6 44 8 212 4 277 -1 11 -306 18 -824
18 l-138 0 2 260 c0 143 4 303 7 357 l5 96 123 1 c77 1 137 7 161 16 42 15 63
18 63 9z m743 -4 l87 0 0 -30 0 -30 -65 0 c-35 0 -85 7 -110 15 -48 17 -85 8
-85 -20 0 -7 -5 -82 -11 -165 l-10 -151 -40 -41 c-21 -22 -47 -62 -56 -89 -16
-43 -21 -49 -47 -49 l-29 0 7 118 c3 64 9 190 13 279 l6 162 76 4 c42 2 99 2
126 1 28 -2 89 -4 138 -4z m2713 -2 c2 -3 -7 -17 -20 -31 -23 -25 -31 -27
-113 -28 -254 -4 -363 -3 -363 2 0 14 58 58 80 61 37 5 410 1 416 -4z m521
-150 c-3 -13 -9 -67 -12 -120 l-7 -97 -210 2 -210 2 6 59 c3 32 6 83 6 112 l0
53 43 4 c23 2 120 4 216 5 l173 2 -5 -22z m-2964 -58 c-3 -30 -8 -82 -12 -115
l-6 -60 -40 -7 c-33 -6 -305 -1 -311 5 -2 1 2 54 8 117 l11 115 177 0 178 0
-5 -55z m2443 -22 c-21 -278 -21 -265 3 -278 36 -19 66 -9 69 23 3 25 6 27 55
28 57 2 301 -2 303 -4 1 -1 4 -30 7 -64 l7 -63 -279 0 c-153 0 -291 -2 -307
-5 -25 -5 -37 2 -88 51 l-59 56 7 156 c3 86 8 157 9 159 2 1 48 6 103 9 54 4
101 8 103 10 2 2 20 4 39 4 l35 0 -7 -82z m-418 64 l32 -5 0 -117 0 -118 -56
31 c-30 18 -76 46 -102 62 l-47 30 4 55 c1 30 5 59 8 63 5 8 104 8 161 -1z
m-271 -69 c3 -7 -3 -9 -17 -6 -29 8 -37 25 -9 21 12 -1 24 -8 26 -15z m-579
-213 l7 -75 38 -2 37 -3 0 85 0 85 33 0 c72 0 304 -73 422 -133 208 -104 464
-368 580 -596 188 -369 206 -782 49 -1148 -95 -221 -223 -394 -387 -523 -180
-141 -285 -198 -471 -255 -80 -24 -195 -44 -258 -45 l-28 0 0 189 c0 159 2
190 15 195 11 4 15 21 15 64 0 58 0 58 45 90 85 60 107 134 114 391 l6 194 46
16 c25 9 58 26 74 39 15 12 33 22 39 22 21 0 140 128 179 192 20 34 50 99 65
143 24 72 27 94 27 220 0 116 -4 152 -22 210 -49 156 -173 317 -294 382 -28
15 -62 34 -75 41 -58 32 -179 54 -294 53 -135 -1 -198 -15 -316 -71 -100 -48
-195 -132 -264 -235 -95 -141 -115 -204 -115 -360 1 -93 5 -123 29 -195 68
-206 238 -407 362 -427 40 -7 37 15 38 -258 1 -173 3 -194 23 -237 27 -60 69
-116 92 -123 15 -4 17 -14 13 -54 -4 -44 -1 -53 23 -77 l28 -28 -7 -190 c-4
-105 -11 -195 -15 -199 -4 -4 -21 -1 -37 7 -16 8 -70 22 -121 30 -295 52 -533
171 -734 367 -175 171 -264 299 -328 471 -91 243 -121 580 -71 798 18 75 71
232 98 285 54 108 154 254 224 325 116 120 359 284 520 351 80 33 250 77 330
86 l57 6 3 -89 3 -89 40 0 40 0 0 85 0 85 55 5 c62 6 57 14 68 -100z m-1188
-50 c0 -5 -4 -10 -9 -10 -5 0 -15 -14 -24 -32 l-15 -31 -208 2 c-115 1 -211 4
-213 6 -2 2 7 20 19 39 l22 36 214 0 c136 0 214 -4 214 -10z m-170 -186 c0
-12 -21 -44 -29 -44 -5 0 -6 11 -3 25 2 14 11 25 18 25 8 0 14 -3 14 -6z
m2653 -39 c6 -58 31 -87 71 -83 30 3 31 4 34 61 l3 58 107 -6 c59 -3 166 -8
237 -11 72 -3 144 -7 161 -10 l32 -6 -4 -126 c-3 -70 -7 -200 -10 -288 l-6
-161 -218 -1 -219 -1 -12 37 c-49 154 -163 405 -225 495 -46 67 -45 87 5 87
38 0 38 0 44 -45z m817 -251 c0 -146 -4 -243 -11 -263 -10 -28 -40 -51 -68
-51 -8 0 -4 363 5 497 l6 82 34 -17 34 -17 0 -231z m-2076 86 c4 -67 4 -125 2
-129 -9 -13 -105 -23 -162 -15 l-52 6 -4 102 c-2 55 -6 107 -9 115 -6 19 68
39 152 40 l66 1 7 -120z m220 22 c125 -86 192 -186 222 -331 30 -153 0 -265
-111 -416 -43 -57 -107 -110 -147 -120 l-28 -7 0 100 0 101 51 3 c34 2 55 8
60 18 4 8 12 86 19 172 9 120 8 176 -1 237 l-11 81 -92 0 -91 0 -4 111 -3 112
34 -7 c18 -3 64 -28 102 -54z m-2575 24 c7 -5 11 -72 11 -204 0 -108 5 -204
10 -212 17 -27 390 -40 480 -17 66 17 73 46 67 265 l-4 172 44 0 43 0 -1 -177
c0 -98 -6 -212 -13 -253 l-12 -75 -84 -9 c-106 -10 -341 -13 -570 -5 l-175 5
-7 45 c-12 80 -20 353 -11 398 7 38 13 46 38 53 81 23 159 29 184 14z m2042
-33 c1 -27 2 -68 3 -93 l1 -45 -45 -3 c-24 -2 -50 -8 -57 -14 -10 -8 -13 -67
-13 -241 0 -261 2 -267 72 -267 l38 0 -1 -42 c0 -24 -4 -65 -8 -93 l-7 -50
-80 80 c-71 71 -84 90 -114 165 -42 108 -52 234 -25 326 34 118 97 213 207
311 23 21 28 14 29 -34z m-1571 -147 l0 -154 -142 -6 c-174 -7 -223 0 -222 32
0 12 1 78 2 147 l2 124 113 4 c61 1 142 4 180 5 l67 2 0 -154z m2086 -247 c-4
-72 -10 -137 -13 -145 -4 -11 -52 -14 -269 -14 l-263 0 2 145 2 145 274 0 274
0 -7 -131z m1872 -155 l2 -66 -182 5 c-101 3 -230 2 -288 -2 -58 -4 -108 -5
-112 -2 -4 3 -10 25 -14 49 l-7 42 259 0 c234 0 262 2 294 19 19 10 38 19 41
20 3 0 6 -29 7 -65z m-4113 -46 c94 1 195 3 225 4 53 3 55 2 58 -24 l3 -28
-118 -1 c-137 -2 -636 3 -673 6 -17 1 -26 8 -28 23 -4 28 17 30 208 23 85 -3
232 -4 325 -3z m2093 -253 l-3 -180 -137 -3 -138 -3 0 180 0 180 38 4 c20 2
83 4 140 3 l102 -1 -2 -180z m-2533 92 c1 -1 -1 -117 -5 -257 -3 -140 -3 -265
2 -277 5 -17 15 -23 37 -23 28 0 30 3 35 43 3 23 8 145 11 271 3 126 8 233 11
238 6 10 598 3 614 -7 6 -3 10 -18 10 -33 l0 -27 -178 0 c-200 0 -205 -1 -223
-68 -13 -48 -28 -422 -20 -475 l7 -37 72 4 c71 3 72 3 72 -21 0 -29 -24 -53
-67 -69 -25 -8 -38 -7 -62 5 -38 20 -234 42 -239 27 -2 -6 -13 -4 -27 5 -13 9
-28 14 -32 11 -4 -3 -8 -256 -8 -564 l0 -558 30 2 c17 1 63 8 103 15 63 10 75
10 83 -3 13 -20 11 -27 -11 -49 -11 -11 -33 -20 -50 -20 -16 0 -31 -4 -31 -10
-1 -5 -3 -22 -4 -37 -1 -16 -11 -48 -20 -73 -23 -56 -25 -177 -6 -245 10 -34
31 -66 67 -105 91 -96 101 -108 68 -96 -8 3 -86 9 -172 12 -86 4 -159 8 -161
10 -5 4 -8 2386 -3 2408 4 16 11 17 50 12 25 -3 46 -7 47 -9z m4360 -162 c77
-3 150 -5 163 -5 l22 0 0 -203 c0 -112 -3 -278 -6 -368 l-7 -164 -110 3 c-98
3 -113 6 -125 24 -26 36 -71 47 -153 40 -68 -7 -78 -11 -105 -40 -27 -31 -33
-33 -96 -33 -53 0 -70 -4 -78 -17 -9 -16 -9 -16 -10 1 0 9 -11 23 -25 29 -31
14 -31 20 1 88 78 168 115 301 141 512 l16 137 76 4 c42 2 94 2 116 0 22 -2
103 -6 180 -8z m-3618 -109 l13 -89 -63 -75 c-94 -115 -125 -145 -143 -138 -9
3 -47 9 -85 12 -38 4 -72 11 -75 15 -2 4 -1 89 2 189 l7 180 166 -2 165 -3 13
-89z m1801 -266 c-4 -201 -27 -237 -154 -248 -52 -4 -67 -1 -92 17 -51 36 -63
84 -60 240 l3 136 153 0 153 1 -3 -146z m-1748 11 c0 -10 12 -44 26 -75 l25
-56 -54 -72 c-30 -40 -62 -85 -71 -100 -26 -40 -45 -43 -80 -9 -17 16 -51 39
-74 52 -42 21 -43 23 -37 58 9 47 11 49 47 28 16 -9 34 -15 38 -12 5 3 44 53
86 110 73 100 94 117 94 76z m136 -313 c16 -34 44 -84 62 -110 17 -26 32 -49
32 -51 0 -3 -35 -7 -77 -11 -95 -8 -140 -22 -153 -46 -6 -12 -5 -47 5 -106 8
-51 15 -157 15 -250 0 -113 4 -165 13 -177 8 -11 48 -25 112 -39 83 -18 132
-21 290 -20 105 0 225 4 268 7 l77 7 0 -49 0 -50 -117 -6 c-65 -4 -185 -18
-268 -32 -82 -13 -180 -25 -216 -25 -72 0 -313 -33 -369 -51 -28 -8 -53 -7
-112 5 -43 9 -98 16 -123 16 -45 0 -45 0 -45 35 l0 34 198 -6 c134 -3 206 -2
225 6 l28 11 -4 88 c-3 48 -10 206 -16 351 l-11 264 24 22 c20 19 23 29 19 67
-5 44 -3 49 48 111 30 36 57 66 60 66 3 1 19 -27 35 -61z m-680 25 c12 -12 11
-20 -2 -51 -21 -53 -73 -136 -116 -189 -45 -53 -46 -69 -14 -150 35 -89 79
-149 118 -161 137 -41 206 -36 252 18 38 46 101 167 137 265 18 50 37 94 41
100 5 5 8 -114 7 -265 -1 -151 1 -311 6 -354 7 -75 7 -79 -11 -72 -11 4 -109
16 -219 26 -208 19 -225 18 -225 -21 0 -17 -8 -19 -66 -19 l-66 0 1 253 c0
138 -1 279 -1 312 -1 33 0 120 2 193 l3 132 70 -2 c43 -1 74 -7 83 -15z m214
-40 c14 -20 48 -51 76 -69 l51 -33 -61 -120 c-62 -124 -124 -217 -141 -215 -6
1 -27 30 -47 65 -35 61 -81 112 -109 121 -8 3 9 34 52 94 82 114 143 193 149
193 3 1 16 -16 30 -36z m3608 -173 c12 -16 34 -33 48 -36 28 -7 28 -1 -2 -301
-8 -78 -14 -175 -14 -214 0 -63 -2 -71 -17 -66 -10 2 -62 17 -115 33 l-98 29
0 211 c0 116 3 244 6 285 l7 75 31 -4 c17 -2 49 1 71 6 59 15 59 14 83 -18z
m472 -306 l0 -324 -98 0 c-55 0 -133 3 -175 6 l-77 7 1 126 c0 69 4 162 9 206
5 44 12 119 16 167 7 83 9 89 38 112 41 30 48 32 177 28 l108 -3 1 -325z
m-772 46 c-2 -273 -3 -281 -23 -286 -11 -2 -87 -3 -170 -2 l-150 3 -3 135 -2
135 147 148 c119 119 153 147 175 147 l28 0 -2 -280z m-2640 138 c17 -24 56
-70 86 -103 31 -32 56 -60 56 -61 0 -1 -35 -7 -77 -14 -76 -12 -278 -6 -287 8
-2 4 -7 48 -11 98 l-7 92 83 9 c46 6 93 11 105 12 14 1 31 -13 52 -41z m-884
-68 c36 -41 45 -60 25 -60 -22 0 -49 22 -64 50 -32 62 -13 67 39 10z m3082
-337 c-3 -3 -17 -1 -33 4 -27 9 -28 13 -28 72 0 57 3 65 30 89 l30 25 3 -93
c1 -51 1 -95 -2 -97z m-1927 134 c9 -7 34 -19 55 -26 21 -7 64 -29 95 -47 l56
-34 -205 -2 c-259 -4 -425 -1 -467 7 -29 5 -33 10 -33 38 0 52 7 55 90 44 78
-10 297 4 343 23 31 13 48 12 66 -3z m1778 -93 c-2 -2 -33 -7 -68 -10 l-64 -5
65 33 65 33 3 -23 c2 -13 2 -26 -1 -28z m-1312 -99 c33 -8 105 -24 159 -35 55
-12 114 -27 130 -34 l31 -13 2 -176 2 -177 -64 0 c-73 0 -85 -11 -85 -74 0
-43 16 -52 87 -52 l53 1 0 -132 0 -132 -232 -3 c-128 -2 -235 -2 -237 -1 -2 1
0 29 4 62 6 50 10 60 29 65 23 6 23 9 29 203 4 109 10 237 13 286 l7 87 -61 0
c-68 0 -76 8 -66 71 5 32 12 40 33 46 14 3 35 12 46 20 11 8 29 11 40 8 11 -4
47 -13 80 -20z m1198 -25 l127 0 0 -80 0 -80 -93 0 c-82 0 -96 3 -112 20 -13
14 -29 20 -49 18 l-31 -3 -3 -272 -2 -273 34 0 c22 0 38 6 44 16 8 14 21 15
93 9 46 -4 88 -6 93 -5 17 3 26 -26 26 -91 0 -63 -1 -67 -22 -67 -278 -2 -374
0 -380 6 -4 4 -3 50 3 102 6 54 9 222 7 387 l-3 293 27 6 c15 3 31 10 34 16 4
6 22 8 43 4 20 -3 93 -6 164 -6z m-367 -67 c4 -21 2 -182 -4 -358 -7 -176 -12
-335 -12 -352 0 -31 -2 -33 -37 -33 -21 0 -68 3 -105 7 l-68 6 0 122 c0 130 2
135 50 135 15 0 20 11 25 64 8 76 3 89 -36 84 l-29 -5 0 169 0 168 33 1 c25 1
89 11 169 28 4 0 10 -16 14 -36z m868 24 l228 3 -7 -88 c-4 -48 -9 -90 -12
-94 -2 -5 -19 -8 -36 -8 -18 0 -50 -5 -71 -10 -34 -7 -42 -6 -53 10 -19 28
-126 58 -230 66 l-93 7 0 64 c0 62 1 64 23 56 12 -4 125 -7 251 -6z m496 -67
c51 -14 110 -18 270 -18 l205 -1 3 -211 2 -210 -34 0 -34 0 -1 166 c-1 92 -6
175 -12 185 -20 38 -48 44 -215 42 -169 -2 -324 -17 -356 -34 -19 -10 -19 -8
-13 58 4 37 9 71 12 75 2 4 27 -2 56 -14 29 -12 81 -29 117 -38z m-1670 -122
l0 -167 -27 0 c-16 1 -40 -2 -55 -6 l-27 -7 -3 176 -3 177 58 -3 57 -3 0 -167z
m-705 -150 c-4 -106 -8 -194 -10 -196 -1 -2 -29 -4 -61 -5 l-58 -2 -4 130 c-1
72 0 158 3 192 l6 62 57 4 c31 2 61 4 66 5 4 1 5 -83 1 -190z m-225 -10 l0
-191 -161 6 c-89 3 -166 10 -170 14 -4 4 -9 78 -10 163 l-2 154 84 13 c46 8
120 17 164 22 44 5 83 9 88 10 4 0 7 -85 7 -191z m-442 -15 l-3 -158 -152 -1
-153 0 0 123 c0 68 -1 126 -2 130 -2 6 227 52 305 62 4 1 6 -70 5 -156z m2477
114 l50 -12 -1 -45 c-1 -95 -15 -162 -38 -185 -20 -20 -34 -23 -114 -24 -62
-1 -103 3 -128 14 -26 10 -41 12 -55 5 -17 -10 -87 -3 -181 16 l-28 6 0 124 0
125 33 -5 c78 -12 190 -16 200 -8 7 6 21 12 32 14 29 5 172 -10 230 -25z m878
-29 c4 -29 7 -108 7 -176 0 -113 -2 -123 -17 -118 -10 2 -72 7 -138 11 -144 8
-334 31 -430 52 -38 8 -94 20 -123 26 -47 9 -53 13 -48 31 3 12 8 49 12 83 l6
61 47 5 c25 2 97 16 160 31 127 30 208 40 392 44 l126 3 6 -53z m-3861 21 l96
-13 7 -94 c8 -106 2 -175 -20 -208 -22 -33 -93 -63 -178 -74 -88 -11 -108 -6
-162 41 -49 43 -85 117 -85 174 0 69 30 118 97 159 64 39 66 39 245 15z m1868
-377 l0 -135 -51 6 c-29 4 -54 9 -57 11 -2 3 -1 61 3 130 l7 125 26 3 c15 2
37 1 50 -1 22 -3 22 -6 22 -139z m1222 28 l38 0 0 -80 0 -80 -175 0 -175 0 0
64 0 63 83 5 c51 3 99 13 127 26 27 11 49 16 55 11 5 -5 26 -9 47 -9z m-2594
-9 c59 1 147 -3 196 -10 48 -6 160 -12 247 -12 l159 0 0 -61 0 -61 -547 4
c-302 2 -579 0 -618 -5 -83 -10 -83 0 -1 14 70 11 146 45 209 93 45 35 50 37
127 37 49 0 80 4 80 10 0 7 7 7 21 0 13 -7 63 -11 127 -9z"/>
<path d="M2195 4840 c-30 -58 -15 -92 41 -92 90 -1 97 1 84 17 -7 8 -8 15 -3
15 15 0 13 43 -3 67 -11 18 -24 23 -59 23 -39 0 -46 -4 -60 -30z"/>
<path d="M2792 4838 c-5 -7 -13 -23 -16 -35 -8 -26 25 -53 65 -53 22 0 29 6
34 29 9 42 -9 71 -44 71 -16 0 -33 -6 -39 -12z"/>
<path d="M3060 4801 c-29 -55 2 -111 61 -111 55 0 82 83 37 114 -32 23 -85 21
-98 -3z"/>
<path d="M2468 4659 c-30 -17 -18 -148 13 -141 8 2 30 4 49 4 43 0 50 10 50
75 0 42 -4 54 -19 63 -25 13 -71 12 -93 -1z"/>
<path d="M2037 4642 c-17 -19 -22 -67 -11 -96 9 -23 76 -21 97 2 21 23 25 75
8 96 -18 22 -74 20 -94 -2z"/>
<path d="M2285 4653 c-64 -16 -34 -113 35 -113 41 0 65 36 50 76 -16 42 -33
50 -85 37z"/>
<path d="M2690 4641 c-34 -65 14 -120 91 -104 24 5 29 11 35 49 9 59 -5 74
-67 74 -38 0 -51 -4 -59 -19z"/>
<path d="M3650 4540 c0 -5 5 -10 11 -10 5 0 7 5 4 10 -3 6 -8 10 -11 10 -2 0
-4 -4 -4 -10z"/>
<path d="M4762 4178 c-12 -16 -35 -328 -30 -423 l3 -70 35 0 35 0 2 80 c2 137
12 319 19 351 5 25 1 37 -15 53 -24 24 -35 26 -49 9z"/>
<path d="M1006 4779 c-44 -34 -31 -98 23 -117 39 -14 66 -6 80 24 17 38 13 63
-14 89 -30 30 -54 31 -89 4z"/>
<path d="M525 3699 c-9 -14 -2 -20 14 -10 8 6 9 11 3 15 -6 3 -14 1 -17 -5z"/>
<path d="M260 3676 c0 -2 7 -7 16 -10 8 -3 12 -2 9 4 -6 10 -25 14 -25 6z"/>
<path d="M540 3670 c0 -5 5 -10 11 -10 5 0 7 5 4 10 -3 6 -8 10 -11 10 -2 0
-4 -4 -4 -10z"/>
<path d="M372 3640 c0 -14 2 -19 5 -12 2 6 2 18 0 25 -3 6 -5 1 -5 -13z"/>
<path d="M356 3583 c-6 -14 -5 -15 5 -6 7 7 10 15 7 18 -3 3 -9 -2 -12 -12z"/>
<path d="M366 2538 c-15 -46 -37 -447 -29 -509 5 -38 7 -39 44 -39 l39 0 0
133 c0 113 4 182 22 392 3 28 1 30 -35 33 -24 2 -39 -1 -41 -10z"/>
<path d="M4335 2378 c-30 -27 -54 -89 -47 -125 3 -14 18 -33 35 -44 l31 -18
-28 -11 c-22 -8 -27 -15 -24 -37 2 -21 10 -29 37 -37 l33 -10 -6 -95 c-9 -132
-14 -151 -36 -151 -41 0 -68 -61 -33 -74 19 -8 107 19 122 37 5 7 13 73 17
148 l7 136 31 9 c40 12 50 58 15 67 -20 5 -19 7 15 37 59 52 56 131 -6 174
-36 25 -131 21 -163 -6z"/>
<path d="M418 1152 c-16 -18 6 -60 38 -72 14 -6 81 -10 150 -10 111 0 126 2
144 20 26 26 25 36 -2 54 -32 20 -315 27 -330 8z"/>
<path d="M2148 569 c-15 -8 -18 -24 -18 -84 0 -71 1 -75 24 -81 40 -10 46 2
46 92 0 73 -2 84 -17 84 -10 0 -26 -5 -35 -11z"/>
</g>
</svg>
